# xmcd
# 
# Track frame offsets:
#     150
#     20712
#     41870
#     59260
#     73770
#     92935
#     109275
#     123277
#     135960
#     148957
#     161247
#     185025
# 
# Disc length: 2814
# 
# Revision: 1
# Processed by: cddbd v1.5.2PL0 Copyright (c) Steve Scherf et al.
# Submitted via: fre:ac v1.1beta1pre2
# 
DISCID=bc0afc0c
DTITLE=オフコース - スプリング・タイム・ベスト・フロム・オフコース
DYEAR=0
DGENRE=J-Pop
TTITLE0=Yes-No
TTITLE1=思いのままに
TTITLE2=僕等の時代
TTITLE3=ワインの匂い
TTITLE4=愛の唄
TTITLE5=私の願い
TTITLE6=眠れぬ夜
TTITLE7=水曜日の午後
TTITLE8=雨の降る日に
TTITLE9=倖せなんて
TTITLE10=素敵なあなた
TTITLE11=愛の中へ
EXTD=
EXTT0=
EXTT1=
EXTT2=
EXTT3=
EXTT4=
EXTT5=
EXTT6=
EXTT7=
EXTT8=
EXTT9=
EXTT10=
EXTT11=
PLAYORDER=
